<mxfile host="www.draw.io" modified="2019-12-23T04:15:36.394Z" agent="Mozilla/5.0 (Windows NT 10.0; Win64; x64) AppleWebKit/537.36 (KHTML, like Gecko) Chrome/79.0.3945.88 Safari/537.36" etag="noNzCw2tELZuwXX2uLyr" version="12.4.3" type="github" pages="1">
  <diagram id="FPb-P4LMljF-DjjGHdtE" name="Page-1">
    <mxGraphModel dx="1692" dy="1659" grid="1" gridSize="10" guides="1" tooltips="1" connect="1" arrows="1" fold="1" page="1" pageScale="1" pageWidth="827" pageHeight="1169" math="0" shadow="0">
      <root>
        <mxCell id="0"/>
        <mxCell id="1" parent="0"/>
        <mxCell id="r4q_0PqIt3kiIRC4Tmnt-4" style="edgeStyle=orthogonalEdgeStyle;rounded=0;orthogonalLoop=1;jettySize=auto;html=1;exitX=0.5;exitY=1;exitDx=0;exitDy=0;entryX=0.5;entryY=0;entryDx=0;entryDy=0;" parent="1" source="r4q_0PqIt3kiIRC4Tmnt-1" target="r4q_0PqIt3kiIRC4Tmnt-2" edge="1">
          <mxGeometry relative="1" as="geometry"/>
        </mxCell>
        <mxCell id="r4q_0PqIt3kiIRC4Tmnt-1" value="visitor" style="rounded=0;whiteSpace=wrap;html=1;" parent="1" vertex="1">
          <mxGeometry x="260" y="-1050" width="120" height="30" as="geometry"/>
        </mxCell>
        <mxCell id="r4q_0PqIt3kiIRC4Tmnt-9" style="edgeStyle=orthogonalEdgeStyle;rounded=0;orthogonalLoop=1;jettySize=auto;html=1;exitX=0;exitY=0.5;exitDx=0;exitDy=0;entryX=0.5;entryY=0;entryDx=0;entryDy=0;" parent="1" source="r4q_0PqIt3kiIRC4Tmnt-2" target="r4q_0PqIt3kiIRC4Tmnt-5" edge="1">
          <mxGeometry relative="1" as="geometry"/>
        </mxCell>
        <mxCell id="r4q_0PqIt3kiIRC4Tmnt-2" value="Home Page" style="rounded=0;whiteSpace=wrap;html=1;" parent="1" vertex="1">
          <mxGeometry x="260" y="-900" width="120" height="60" as="geometry"/>
        </mxCell>
        <mxCell id="r4q_0PqIt3kiIRC4Tmnt-17" style="edgeStyle=orthogonalEdgeStyle;rounded=0;orthogonalLoop=1;jettySize=auto;html=1;entryX=0.5;entryY=0;entryDx=0;entryDy=0;" parent="1" source="r4q_0PqIt3kiIRC4Tmnt-5" target="r4q_0PqIt3kiIRC4Tmnt-16" edge="1">
          <mxGeometry relative="1" as="geometry"/>
        </mxCell>
        <mxCell id="F33jPe7eqkLl6kKAbYYz-7" value="" style="edgeStyle=orthogonalEdgeStyle;rounded=0;orthogonalLoop=1;jettySize=auto;html=1;" edge="1" parent="1" source="r4q_0PqIt3kiIRC4Tmnt-5" target="F33jPe7eqkLl6kKAbYYz-6">
          <mxGeometry relative="1" as="geometry"/>
        </mxCell>
        <mxCell id="r4q_0PqIt3kiIRC4Tmnt-5" value="user" style="rounded=0;whiteSpace=wrap;html=1;" parent="1" vertex="1">
          <mxGeometry x="30" y="-790" width="120" height="40" as="geometry"/>
        </mxCell>
        <mxCell id="r4q_0PqIt3kiIRC4Tmnt-19" style="edgeStyle=orthogonalEdgeStyle;rounded=0;orthogonalLoop=1;jettySize=auto;html=1;exitX=0.5;exitY=1;exitDx=0;exitDy=0;" parent="1" source="r4q_0PqIt3kiIRC4Tmnt-6" target="r4q_0PqIt3kiIRC4Tmnt-7" edge="1">
          <mxGeometry relative="1" as="geometry"/>
        </mxCell>
        <mxCell id="F33jPe7eqkLl6kKAbYYz-1" style="edgeStyle=orthogonalEdgeStyle;rounded=0;orthogonalLoop=1;jettySize=auto;html=1;exitX=0;exitY=0.5;exitDx=0;exitDy=0;" edge="1" parent="1" source="r4q_0PqIt3kiIRC4Tmnt-6" target="r4q_0PqIt3kiIRC4Tmnt-21">
          <mxGeometry relative="1" as="geometry"/>
        </mxCell>
        <mxCell id="r4q_0PqIt3kiIRC4Tmnt-6" value="Celebrity" style="rounded=0;whiteSpace=wrap;html=1;" parent="1" vertex="1">
          <mxGeometry x="-160" y="-540" width="120" height="40" as="geometry"/>
        </mxCell>
        <mxCell id="F33jPe7eqkLl6kKAbYYz-12" style="edgeStyle=orthogonalEdgeStyle;rounded=0;orthogonalLoop=1;jettySize=auto;html=1;exitX=0.75;exitY=1;exitDx=0;exitDy=0;" edge="1" parent="1" source="r4q_0PqIt3kiIRC4Tmnt-7" target="F33jPe7eqkLl6kKAbYYz-8">
          <mxGeometry relative="1" as="geometry"/>
        </mxCell>
        <mxCell id="r4q_0PqIt3kiIRC4Tmnt-7" value="En product" style="rounded=0;whiteSpace=wrap;html=1;" parent="1" vertex="1">
          <mxGeometry x="30" y="-430" width="120" height="40" as="geometry"/>
        </mxCell>
        <mxCell id="r4q_0PqIt3kiIRC4Tmnt-8" value="admin" style="rounded=0;whiteSpace=wrap;html=1;" parent="1" vertex="1">
          <mxGeometry x="420" y="-850" width="120" height="40" as="geometry"/>
        </mxCell>
        <mxCell id="r4q_0PqIt3kiIRC4Tmnt-18" style="edgeStyle=orthogonalEdgeStyle;rounded=0;orthogonalLoop=1;jettySize=auto;html=1;exitX=0.5;exitY=1;exitDx=0;exitDy=0;" parent="1" source="r4q_0PqIt3kiIRC4Tmnt-16" target="r4q_0PqIt3kiIRC4Tmnt-6" edge="1">
          <mxGeometry relative="1" as="geometry"/>
        </mxCell>
        <mxCell id="r4q_0PqIt3kiIRC4Tmnt-16" value="celeb registration form" style="rounded=0;whiteSpace=wrap;html=1;" parent="1" vertex="1">
          <mxGeometry x="-190" y="-680" width="120" height="40" as="geometry"/>
        </mxCell>
        <mxCell id="r4q_0PqIt3kiIRC4Tmnt-21" value="Profile" style="rounded=0;whiteSpace=wrap;html=1;" parent="1" vertex="1">
          <mxGeometry x="-280" y="-430" width="120" height="40" as="geometry"/>
        </mxCell>
        <mxCell id="F33jPe7eqkLl6kKAbYYz-6" value="user Profile" style="rounded=0;whiteSpace=wrap;html=1;" vertex="1" parent="1">
          <mxGeometry x="170" y="-680" width="120" height="40" as="geometry"/>
        </mxCell>
        <mxCell id="F33jPe7eqkLl6kKAbYYz-8" value="vote" style="rounded=0;whiteSpace=wrap;html=1;" vertex="1" parent="1">
          <mxGeometry x="30" y="-320" width="120" height="40" as="geometry"/>
        </mxCell>
      </root>
    </mxGraphModel>
  </diagram>
</mxfile>
